<svg width="32" height="32" viewBox="0 0 32 32" fill="none" xmlns="http://www.w3.org/2000/svg">
<path d="M5 5V7H10.563L5.28 12.28L5 12.594V15H13V13H7.437L12.719 7.72L12.999 7.406V5H5ZM22 5V23.688L19.406 21.094L18 22.5L22.28 26.813L23 27.5L23.72 26.812L28 22.5L26.594 21.094L24 23.687V5H22ZM8.187 17L7.969 17.656L6.03 23H6V23.063L5.062 25.656L5 25.813V27H7V26.156L7.406 25H10.594L11 26.156V27H13V25.812L12.937 25.656L12 23.063V23H11.97L10.03 17.656L9.814 17H8.185H8.187ZM9 20.656L9.844 23H8.156L9 20.656Z" fill="white"/>
</svg>
