<svg width="32" height="32" viewBox="0 0 32 32" fill="none" xmlns="http://www.w3.org/2000/svg">
<path d="M8.188 5L7.968 5.656L6.032 11H6V11.063L5.062 13.656L5 13.812V15H7V14.156L7.406 13H10.594L11 14.156V15H13V13.812L12.937 13.656L12 11.062V11H11.97L10.03 5.656L9.814 5H8.185H8.188ZM22 5V23.688L19.406 21.094L18 22.5L22.28 26.813L23 27.5L23.72 26.812L28 22.5L26.594 21.094L24 23.687V5H22ZM9 8.656L9.844 11H8.156L9 8.656ZM5 17V19H10.563L5.28 24.28L5 24.594V27H13V25H7.437L12.719 19.72L12.999 19.406V17H5Z" fill="white"/>
</svg>
