<svg width="14" height="15" viewBox="0 0 14 15" fill="none" xmlns="http://www.w3.org/2000/svg">
<path d="M6.50008 6.08333C7.31537 6.08333 7.91675 5.48267 7.91675 4.66667C7.91675 3.85067 7.31537 3.25 6.50008 3.25C5.6855 3.25 5.08341 3.85067 5.08341 4.66667C5.08341 5.48267 5.6855 6.08333 6.50008 6.08333ZM6.50008 6.79167C4.93537 6.79167 3.66675 7.9335 3.66675 9.34167V9.61508H9.33342V9.34167C9.33342 7.9335 8.06479 6.79167 6.50008 6.79167Z" fill="#F0F2F5"/>
<path d="M11.4583 0.416664H1.54167C0.760375 0.416664 0.125 1.05204 0.125 1.83333V11.0417C0.125 11.823 0.760375 12.4583 1.54167 12.4583H4.375L6.5 14.5833L8.625 12.4583H11.4583C12.2396 12.4583 12.875 11.823 12.875 11.0417V1.83333C12.875 1.05204 12.2396 0.416664 11.4583 0.416664ZM7.91667 11.0417L6.5 12.4583L5.08333 11.0417H1.54167V1.83333H11.4583L11.4598 11.0417H7.91667Z" fill="#F0F2F5"/>
</svg>
