<svg width="15" height="15" viewBox="0 0 15 15" fill="none" xmlns="http://www.w3.org/2000/svg">
<path d="M13.4375 2.5H11.7709V3.75C11.7709 3.87038 11.7471 3.98958 11.7011 4.1008C11.655 4.21201 11.5875 4.31306 11.5024 4.39818C11.4173 4.4833 11.3162 4.55082 11.205 4.59689C11.0938 4.64296 10.9746 4.66667 10.8542 4.66667C10.7338 4.66667 10.6146 4.64296 10.5034 4.59689C10.3922 4.55082 10.2911 4.4833 10.206 4.39818C10.1209 4.31306 10.0534 4.21201 10.0073 4.1008C9.96124 3.98958 9.93752 3.87038 9.93752 3.75V2.5H5.08336V3.75C5.08336 3.99312 4.98678 4.22627 4.81487 4.39818C4.64296 4.57009 4.40981 4.66667 4.16669 4.66667C3.92358 4.66667 3.69042 4.57009 3.51851 4.39818C3.3466 4.22627 3.25003 3.99312 3.25003 3.75V2.5H1.58336C1.4842 2.49887 1.38583 2.51764 1.29405 2.55519C1.20227 2.59275 1.11896 2.64832 1.04903 2.71864C0.979107 2.78895 0.923992 2.87257 0.886948 2.96456C0.849904 3.05654 0.831681 3.15502 0.833359 3.25417V12.5792C0.831704 12.6766 0.849252 12.7733 0.885003 12.864C0.920754 12.9546 0.974006 13.0373 1.04172 13.1073C1.10943 13.1773 1.19028 13.2333 1.27964 13.2721C1.369 13.3109 1.46512 13.3317 1.56253 13.3333H13.4375C13.5349 13.3317 13.6311 13.3109 13.7204 13.2721C13.8098 13.2333 13.8906 13.1773 13.9583 13.1073C14.026 13.0373 14.0793 12.9546 14.115 12.864C14.1508 12.7733 14.1683 12.6766 14.1667 12.5792V3.25417C14.1683 3.15677 14.1508 3.06 14.115 2.96938C14.0793 2.87876 14.026 2.79607 13.9583 2.72604C13.8906 2.65601 13.8098 2.6 13.7204 2.56121C13.6311 2.52243 13.5349 2.50163 13.4375 2.5ZM4.16669 10.8333H3.33336V10H4.16669V10.8333ZM4.16669 8.75H3.33336V7.91667H4.16669V8.75ZM4.16669 6.66667H3.33336V5.83334H4.16669V6.66667ZM6.66669 10.8333H5.83336V10H6.66669V10.8333ZM6.66669 8.75H5.83336V7.91667H6.66669V8.75ZM6.66669 6.66667H5.83336V5.83334H6.66669V6.66667ZM9.16669 10.8333H8.33336V10H9.16669V10.8333ZM9.16669 8.75H8.33336V7.91667H9.16669V8.75ZM9.16669 6.66667H8.33336V5.83334H9.16669V6.66667ZM11.6667 10.8333H10.8334V10H11.6667V10.8333ZM11.6667 8.75H10.8334V7.91667H11.6667V8.75ZM11.6667 6.66667H10.8334V5.83334H11.6667V6.66667Z" fill="#F0F2F5"/>
<path d="M4.16667 4.16667C4.27717 4.16667 4.38315 4.12277 4.46129 4.04463C4.53943 3.96649 4.58333 3.86051 4.58333 3.75V1.25C4.58333 1.1395 4.53943 1.03351 4.46129 0.955375C4.38315 0.877235 4.27717 0.833336 4.16667 0.833336C4.05616 0.833336 3.95018 0.877235 3.87204 0.955375C3.7939 1.03351 3.75 1.1395 3.75 1.25V3.75C3.75 3.86051 3.7939 3.96649 3.87204 4.04463C3.95018 4.12277 4.05616 4.16667 4.16667 4.16667Z" fill="#F0F2F5"/>
<path d="M10.8334 4.16667C10.9439 4.16667 11.0499 4.12277 11.128 4.04463C11.2062 3.96649 11.2501 3.86051 11.2501 3.75V1.25C11.2501 1.1395 11.2062 1.03351 11.128 0.955375C11.0499 0.877235 10.9439 0.833336 10.8334 0.833336C10.7229 0.833336 10.6169 0.877235 10.5388 0.955375C10.4606 1.03351 10.4167 1.1395 10.4167 1.25V3.75C10.4167 3.86051 10.4606 3.96649 10.5388 4.04463C10.6169 4.12277 10.7229 4.16667 10.8334 4.16667Z" fill="#F0F2F5"/>
</svg>
