<svg width="82" height="68" viewBox="0 0 82 68" fill="none" xmlns="http://www.w3.org/2000/svg">
<path d="M5.51047 29.3259H5.8526C6.18617 29.3259 6.18617 29.454 6.51119 29.7103C6.54712 29.7477 6.59027 29.7775 6.63805 29.7979C6.68582 29.8183 6.73723 29.8288 6.78917 29.8288C6.84112 29.8288 6.89252 29.8183 6.9403 29.7979C6.98807 29.7775 7.03122 29.7477 7.06715 29.7103C7.06715 29.7103 7.52047 29.2576 7.66587 29.249C7.81128 29.2405 8.008 29.249 8.1534 29.0953C8.29881 28.9416 8.03366 28.1729 7.86259 27.9508C7.69153 27.7287 7.70864 27.6348 7.70008 27.2419C7.70468 27.107 7.67199 26.9735 7.60561 26.856C7.53922 26.7385 7.4417 26.6415 7.32374 26.5757C7.11847 26.4134 7.22966 25.9778 7.32374 25.8582C7.41702 25.7736 7.47818 25.6593 7.49688 25.5348C7.51558 25.4104 7.49068 25.2832 7.42638 25.175C7.39527 25.1218 7.37655 25.0624 7.3716 25.001C7.36664 24.9396 7.37559 24.878 7.39778 24.8205C7.41996 24.7631 7.45481 24.7114 7.49974 24.6692C7.54467 24.6271 7.59853 24.5956 7.65732 24.5771C7.75862 24.5418 7.84818 24.4793 7.91611 24.3964C7.98403 24.3135 8.02768 24.2135 8.04221 24.1073C8.04221 23.8511 7.81983 23.6034 7.58889 23.4753C7.35796 23.3472 7.10991 22.9799 7.39217 22.9201C7.67442 22.8603 7.71719 22.4418 7.98234 22.4418C8.24749 22.4418 7.98234 22.792 8.48698 22.9201C8.99161 23.0482 8.88042 22.1343 9.03438 21.75C9.21261 21.3755 9.51469 21.0739 9.8897 20.8959C10.2147 20.7165 10.0009 20.3407 9.8897 20.1528C9.77112 19.8449 9.77112 19.5041 9.8897 19.1962C10.0094 18.8973 10.745 18.5044 10.8134 18.419C10.8819 18.3336 10.9246 18.1286 11.2154 18.1798C11.5062 18.2311 11.6944 17.804 12.2675 17.7357C12.4395 17.7074 12.6156 17.7163 12.7839 17.762C12.9521 17.8077 13.1086 17.889 13.2425 18.0005C13.5077 18.1542 13.4906 17.7955 13.4991 17.7015C13.5077 17.6076 13.5761 17.283 13.9011 17.3514C14.2262 17.4197 14.5084 17.4453 14.5084 17.4453C14.5084 17.4453 14.9959 17.4453 15.4407 17.4453C15.8855 17.4453 15.8085 17.5734 16.125 17.5734C16.4414 17.5734 16.6809 17.1891 16.8092 16.8987C16.9375 16.6083 16.9375 16.7022 17.2625 16.6425C17.5876 16.5827 17.827 16.0104 17.9553 15.8567C18.0251 15.7755 18.1117 15.7105 18.2092 15.6663C18.3067 15.622 18.4128 15.5995 18.5199 15.6004C18.7508 15.6004 19.0673 15.1392 19.2041 14.9769C19.289 14.8812 19.3869 14.7978 19.4949 14.7293C19.6427 14.7117 19.7919 14.7117 19.9397 14.7293C20.2647 14.7293 20.3844 14.6524 20.4871 14.251C20.5897 13.8495 20.872 13.8837 20.872 13.8837C20.872 13.8837 21.7273 13.8837 21.8984 13.8837C22.0128 13.8963 22.1232 13.9334 22.2221 13.9923C22.3209 14.0513 22.406 14.1307 22.4714 14.2253C22.557 14.3962 22.3688 14.4218 22.249 14.6011C22.1293 14.7805 22.326 15.2246 22.326 15.2246C22.3358 15.4638 22.3702 15.7014 22.4287 15.9335C22.4776 16.5016 22.4976 17.0717 22.4885 17.6418C22.4554 17.8901 22.333 18.1179 22.1442 18.2829C21.9554 18.4478 21.713 18.5387 21.4621 18.5386C20.6924 18.5386 20.2904 17.3514 20.239 17.172C20.2137 16.8479 20.2137 16.5224 20.239 16.1983C20.239 16.1983 20.239 15.8054 20.145 15.8823C19.9897 16.0856 19.9083 16.3356 19.914 16.5912C19.914 16.9499 19.5719 17.0951 19.4008 17.1293C19.1284 17.2999 18.8905 17.5201 18.6995 17.7784C18.5813 18.1741 18.5435 18.5893 18.5883 18.9998C18.5992 19.0457 18.6193 19.089 18.6474 19.1269C18.6755 19.1649 18.7109 19.1968 18.7517 19.2208C18.7924 19.2447 18.8376 19.2602 18.8845 19.2662C18.9314 19.2723 18.979 19.2688 19.0245 19.256C19.187 19.2048 19.1357 18.7265 19.1528 18.5642C19.1699 18.4019 19.2469 18.2823 19.4778 18.3421C19.7087 18.4019 19.7515 19.1194 19.7515 19.1194C19.8394 19.2486 19.9366 19.3714 20.0423 19.4866C20.2904 19.7856 20.4272 19.2475 20.4956 19.0767C20.5641 18.9058 20.8805 18.9144 21.0088 18.9656C21.2343 19.0271 21.4696 19.0445 21.7016 19.0169C21.9753 19.0169 21.9155 19.0169 22.0352 19.1108C22.155 19.2048 22.155 19.3756 22.0352 19.6745C21.9155 19.9735 22.1036 19.9991 22.1036 19.9991C22.1036 19.9991 22.8307 18.9912 23.2241 18.8375C23.6176 18.6838 23.6774 18.2055 23.8913 18.1884C24.1051 18.1713 24.1307 18.6325 24.2077 18.7265C24.2847 18.8204 24.1906 19.1535 24.1906 19.1535C24.1855 19.1905 24.1729 19.226 24.1535 19.2579C24.1342 19.2898 24.1085 19.3174 24.078 19.339C24.0476 19.3606 24.013 19.3757 23.9765 19.3835C23.9399 19.3913 23.9022 19.3915 23.8656 19.3841C23.6176 19.3841 23.7458 19.2133 23.5406 19.1621C23.3353 19.1108 23.2754 19.461 23.2754 19.461C23.2346 19.5864 23.2234 19.7194 23.2427 19.8498C23.262 19.9802 23.3113 20.1044 23.3866 20.2126C23.6004 20.4005 23.6004 20.2126 23.9853 20.076C24.1189 20.0123 24.265 19.9792 24.413 19.9792C24.561 19.9792 24.7071 20.0123 24.8407 20.076C25.2514 20.1604 25.6701 20.2005 26.0894 20.1955C26.2541 20.2214 26.4149 20.2673 26.5684 20.3322C26.7309 20.4176 26.5684 20.5628 26.5684 20.5628C26.5684 20.5628 26.2263 20.708 26.2348 20.9215C26.2434 21.135 26.6368 21.0496 26.9105 21.1607C27.2464 21.2644 27.5942 21.3246 27.9455 21.34C28.1849 21.34 28.2021 21.545 28.0652 21.8098C27.9284 22.0746 28.2192 22.0575 28.2363 22.0319C28.3243 21.9006 28.4452 21.7946 28.5869 21.7244C28.8264 21.5877 28.6981 21.3827 28.7837 21.2205C28.8692 21.0582 28.9462 21.0069 29.3482 21.2205C29.8693 21.7767 30.2761 22.4296 30.5456 23.1422C30.6141 23.407 30.7766 23.5351 30.9476 23.4753C31.1187 23.4155 31.0332 23.0824 31.0332 23.0824C30.9937 22.9909 30.9761 22.8915 30.9818 22.792C30.9818 22.6981 31.1529 22.6981 30.9818 22.4674C30.9342 22.4101 30.9022 22.3415 30.8887 22.2682C30.8752 22.1949 30.8808 22.1194 30.9049 22.0489C30.9049 22.0489 31.1443 21.656 31.2555 21.5108C31.3215 21.3937 31.3541 21.2608 31.3496 21.1265C31.3496 21.1265 31.3496 20.8105 31.5036 20.8105C31.5821 20.813 31.6586 20.7855 31.7174 20.7336L32.0681 20.4603C32.0681 20.4603 32.5642 19.7941 32.7951 19.8112C33.026 19.8283 32.9576 19.8112 33.0089 19.6489C33.0603 19.4866 33.2655 19.3158 33.3853 19.3414C33.505 19.367 33.6504 19.5208 33.4708 19.6318C33.2912 19.7429 33.3853 19.8881 33.3853 19.8881C33.5251 20.0072 33.6139 20.1753 33.6333 20.3578C33.5848 20.6367 33.4503 20.8935 33.2484 21.0923C33.1404 21.262 33.0569 21.446 33.0004 21.639C32.9015 21.9998 32.7786 22.3536 32.6326 22.6981C32.5363 22.8748 32.478 23.0697 32.4615 23.2703C32.4435 23.4806 32.4435 23.6921 32.4615 23.9023C32.4597 24.1212 32.3878 24.3337 32.2563 24.5088L31.7003 25.0212C31.4266 25.2775 30.6397 25.0639 30.3318 25.0639C30.0239 25.0639 30.2548 25.2604 30.2548 25.2604C30.2548 25.2604 30.8279 25.9437 31.1101 25.9693C31.3924 25.9949 32.0339 25.491 32.2306 25.3458C32.4459 25.1673 32.5987 24.925 32.6668 24.654C32.6866 24.5343 32.7435 24.4238 32.8294 24.338C32.9153 24.2522 33.0259 24.1954 33.1458 24.1757C33.4623 24.0988 33.5991 24.3123 33.659 24.5344C33.7045 24.7349 33.6835 24.9447 33.5991 25.1323C33.5991 25.1323 33.2228 25.6362 33.6761 25.713C34.1294 25.7899 34.0695 25.3714 33.8899 25.2433C33.7103 25.1152 33.8899 24.9016 33.9583 24.7735C34.0656 24.6097 34.1054 24.4108 34.0695 24.2184C34.0011 23.9621 33.6162 23.7913 33.6162 23.7913C33.4409 23.7939 33.2659 23.7767 33.0945 23.7401C32.8208 23.6717 33.0517 23.1934 33.0517 23.1764C33.0517 23.1593 33.3596 22.4674 33.4537 22.3222C33.5227 22.1607 33.552 21.985 33.5392 21.8098C33.5392 21.8098 33.4794 21.2888 33.7873 21.2717C33.8736 21.2688 33.9569 21.2393 34.0258 21.1873C34.0947 21.1354 34.1458 21.0634 34.1722 20.9813C34.1722 20.9813 34.232 20.1272 34.3946 20.3151C34.5571 20.503 34.0866 21.4852 34.0866 21.4852C34.0866 21.4852 33.659 22.0148 34.1978 22.0916C34.7367 22.1685 34.6939 22.0489 34.54 21.7244C34.386 21.3998 34.6426 21.434 34.9591 21.2205C35.2755 21.0069 35.4124 21.2205 35.4124 21.2205C35.5344 21.403 35.6688 21.5771 35.8144 21.7415C35.9256 21.8354 36.1993 22.0319 36.3532 21.8098C36.5072 21.5877 36.2592 21.1692 36.0795 20.6909C35.8999 20.2126 36.4302 20.1699 36.4302 20.1699C36.4302 20.1699 37.4309 20.1699 37.7474 20.2212C38.0639 20.2724 37.9954 19.982 37.9954 19.982C37.8713 19.8121 37.7973 19.6109 37.7816 19.4012C37.7816 19.1791 38.5001 18.6667 38.8593 18.4959C39.1986 18.3548 39.5553 18.26 39.9199 18.214C40.1765 18.1713 40.1166 18.009 40.2706 18.009C40.4245 18.009 40.2706 18.1884 40.4673 18.2482C40.664 18.308 40.6127 18.1371 40.7154 18.0517C40.818 17.9663 41.0831 18.0517 41.0831 18.0517C41.0831 18.0517 40.9891 18.0517 41.0831 17.787C41.1772 17.5222 41.6819 17.6674 41.5707 17.5649C41.4954 17.4761 41.4404 17.3721 41.4094 17.26C41.3784 17.148 41.3721 17.0305 41.3911 16.9158C41.4235 16.7996 41.4854 16.6937 41.5708 16.6084C41.6562 16.5231 41.7622 16.4613 41.8786 16.4289C42.1352 16.3521 42.3918 16.6595 42.3918 16.6766C42.3918 16.6937 42.2464 16.8645 42.3918 16.9243C42.5372 16.9841 42.5885 17.0439 42.7168 17.2659C42.8451 17.488 43.1017 17.2659 43.3925 17.1208C43.6833 16.9756 43.9912 17.2147 44.1452 17.3343C44.2991 17.4539 44.5899 17.8126 44.5215 17.9834C44.4479 18.1736 44.4186 18.3781 44.436 18.5813C44.436 18.9912 44.1366 19.1023 43.9827 19.2987C43.8906 19.434 43.832 19.5891 43.8116 19.7514C43.8116 19.7514 43.3241 20.392 43.1359 20.6055C43.0815 20.6761 43.0445 20.7586 43.0282 20.8462C43.0118 20.9338 43.0165 21.024 43.0418 21.1094C43.0418 21.1094 44.0169 20.3749 44.2307 20.1357C44.4445 19.8966 44.2307 19.7001 44.436 19.572C44.6413 19.4439 44.761 19.6831 44.9577 19.8283C45.1545 19.9735 45.2913 19.8283 45.2913 19.8283C45.2913 19.8283 45.7019 19.35 45.9756 19.3329C46.2493 19.3158 46.3006 19.4439 46.5315 19.5635C46.8077 19.6502 47.0989 19.6793 47.3868 19.6489C47.5493 19.6489 47.8402 19.5977 47.7888 19.2219C47.7837 19.0111 47.7051 18.8087 47.5665 18.6496C47.4638 18.4959 47.7033 18.3592 47.8573 18.3507C48.0112 18.3421 48.0027 18.4702 48.2764 18.5727C48.5501 18.6752 48.4902 18.5727 48.7468 18.4446C49.0034 18.3165 49.4396 18.6667 49.6021 18.8546C49.7646 19.0425 49.6021 19.1279 49.6021 19.1279C49.6021 19.1279 49.1317 19.256 49.5422 19.35C49.9528 19.4439 50.0041 19.6916 50.3976 19.8283C50.791 19.9649 50.9792 19.982 50.9877 19.7087C50.9963 19.4354 50.6798 19.145 50.8081 18.9742C50.9364 18.8033 51.116 18.9742 51.3042 18.9742C51.4924 18.9742 51.5351 18.8887 51.5522 18.624C51.5693 18.3592 51.8601 18.4105 51.8773 18.4105C51.8944 18.4105 52.5102 18.4105 52.5016 18.3507C52.4931 18.2909 52.2194 18.1713 52.2108 18.0603C52.2023 17.9492 52.553 18.009 52.553 18.009C52.553 18.009 53.1004 17.8638 52.553 17.5393C52.0056 17.2147 52.2536 16.4802 52.2536 16.4802C52.2536 16.4802 52.7668 16.0873 53.0063 15.9335C53.2458 15.7798 53.3142 15.9335 53.3142 15.9335C53.3142 15.9335 53.6392 16.5912 53.7846 16.446C53.93 16.3008 53.8701 16.0019 53.8616 15.9165C53.8174 15.8383 53.7941 15.75 53.7941 15.6602C53.7941 15.5704 53.8174 15.4822 53.8616 15.404C54.007 15.1649 54.2379 15.2161 54.2893 15.31C54.3182 15.3873 54.3678 15.4552 54.4326 15.5064C54.4974 15.5576 54.5751 15.5901 54.657 15.6004C54.7532 15.5968 54.8473 15.5711 54.9319 15.5251C55.0165 15.4792 55.0892 15.4143 55.1446 15.3357C55.1598 15.3162 55.1792 15.3004 55.2015 15.2895C55.2237 15.2786 55.2481 15.273 55.2729 15.273C55.2976 15.273 55.322 15.2786 55.3443 15.2895C55.3665 15.3004 55.386 15.3162 55.4012 15.3357C55.461 15.4296 55.6321 15.404 55.7433 15.3955C55.8545 15.3869 55.9828 15.0965 56.1025 14.9428C56.2223 14.789 56.1709 14.5072 56.3848 14.0887C56.4291 13.9701 56.4965 13.8615 56.5831 13.7691C56.6697 13.6768 56.7738 13.6025 56.8894 13.5506C57.0476 13.4776 57.2198 13.4397 57.3941 13.4396C57.7276 13.4396 57.8474 13.7897 58.0184 13.8239C58.246 13.8316 58.4728 13.7939 58.6856 13.7129C58.9251 13.6445 58.7369 13.5677 58.6001 13.4481C58.4632 13.3285 58.4803 13.0894 58.6001 12.9015C58.7198 12.7136 59.1475 12.1413 59.233 11.9705C59.2993 11.724 59.2813 11.4625 59.1817 11.2274C59.0961 11.1079 59.1817 10.8431 59.2672 10.8175C59.3527 10.7918 59.404 10.8175 59.4297 11.0481C59.4554 11.2787 59.7975 11.2958 60.0541 11.2445C60.3107 11.1933 60.5587 10.7406 60.3449 10.5783C60.1094 10.4427 59.8367 10.3858 59.5666 10.416C59.233 10.416 59.3784 9.85232 59.3784 9.85232C59.3784 9.85232 59.635 9.27153 59.9172 8.76761C60.1341 8.41414 60.4022 8.09466 60.7127 7.81955C60.7127 7.81955 61.9957 6.52985 62.2865 6.25654C62.4278 6.10285 62.6183 6.00318 62.8253 5.97468C63.109 6.01431 63.3969 6.01431 63.6806 5.97468C63.903 5.89781 63.9201 5.4793 63.7491 5.53909C63.6713 5.57504 63.5867 5.59367 63.501 5.59367C63.4154 5.59367 63.3307 5.57504 63.253 5.53909C63.1076 5.46222 63.1674 5.04371 63.1846 4.90705C63.4063 4.53853 63.7301 4.24191 64.1169 4.05295C64.3991 3.99316 64.5017 4.24085 64.5787 4.48C64.8294 4.81555 65.1843 5.05881 65.588 5.17183C65.9387 5.25724 65.7505 5.50493 65.7505 5.50493C65.6983 5.51122 65.6503 5.53647 65.6156 5.57585C65.5809 5.61523 65.562 5.66599 65.5623 5.71845C65.5581 5.78122 65.5398 5.84223 65.5087 5.89694C65.4776 5.95166 65.4345 5.99866 65.3827 6.03447C65.3827 6.03447 64.9636 6.26508 64.7327 6.41882C64.5017 6.57256 64.6044 6.84587 64.6129 7.08502C64.6207 7.14695 64.6047 7.2095 64.5682 7.26017C64.5317 7.31084 64.4774 7.3459 64.4162 7.35833H63.9886C63.9886 7.35833 63.6721 7.48645 63.6892 7.67435C63.6974 7.72715 63.7244 7.77521 63.7653 7.80973C63.8061 7.84424 63.8581 7.86289 63.9116 7.86226H64.5274C64.6773 7.9039 64.814 7.983 64.9248 8.0921C65.0355 8.20119 65.1166 8.33668 65.1603 8.48575C65.1749 8.56212 65.1691 8.64096 65.1436 8.7144C65.1181 8.78785 65.0737 8.85331 65.0149 8.90426C64.8864 9.00591 64.7813 9.1341 64.707 9.28007C64.5958 9.47651 64.707 9.71566 64.8439 9.71566C64.9807 9.71566 65.032 9.43381 65.1603 9.24591C65.2886 9.058 65.4084 9.10925 65.4084 9.10925H66.1012C66.1977 9.12024 66.2949 9.09597 66.3749 9.04092C66.4995 8.93551 66.6498 8.86497 66.8106 8.83646C66.9713 8.80795 67.1368 8.82251 67.2901 8.87864C67.5296 9.0153 67.2901 9.51068 67.196 9.62171C67.1019 9.73275 67.0591 9.69004 67.0762 9.94627C67.1522 10.3147 67.285 10.669 67.4697 10.9968C67.6253 11.3941 67.7399 11.8062 67.8118 12.2267C68.0053 12.6852 68.2678 13.1115 68.5902 13.4908C68.6843 13.6018 68.5902 13.6872 68.3763 13.6872C68.1625 13.6872 67.9914 13.7556 67.7776 14.0631C67.5638 14.3705 67.7776 14.9172 67.7776 14.9172C67.7776 14.9172 67.9829 15.4211 67.9059 15.515C67.8289 15.609 67.5809 15.515 67.5809 15.515C67.6045 15.603 67.642 15.6866 67.6921 15.7627C67.7209 15.8088 67.7362 15.8621 67.7362 15.9165C67.7362 15.9708 67.7209 16.0241 67.6921 16.0702C67.6229 16.2074 67.5429 16.3388 67.4526 16.4631C67.3243 16.6254 67.4526 16.7706 67.7092 16.8901C67.8988 17.0281 68.0444 17.218 68.1283 17.4368C68.1283 17.4368 68.7099 18.1628 68.8553 18.1628C69.0007 18.1628 69.0777 18.0688 69.1376 17.8467C69.1974 17.6247 69.3257 17.8467 69.4711 18.0432C69.5092 18.0981 69.5587 18.1441 69.6163 18.178C69.6739 18.2119 69.7382 18.2329 69.8047 18.2396C70.0499 18.2497 70.2934 18.284 70.5317 18.3421C70.6771 18.419 70.6258 18.6154 70.5317 19.0083C70.4376 19.4012 71.2588 19.5037 71.6094 19.6831C71.9601 19.8624 71.7035 20.1955 71.6094 20.5372C71.5154 20.8788 71.943 21.2888 72.3022 21.3913C72.3462 21.4046 72.3863 21.4281 72.4194 21.4599C72.4525 21.4917 72.4776 21.5308 72.4926 21.5742C72.5076 21.6175 72.5121 21.6637 72.5058 21.7091C72.4995 21.7546 72.4825 21.7978 72.4562 21.8354C72.4562 21.8354 72.2167 22.0831 72.2937 22.3052C72.3707 22.5272 72.6102 22.5016 72.901 22.7237C73.0909 22.8759 73.226 23.0858 73.2859 23.3216C73.3754 23.6379 73.4044 23.9682 73.3714 24.2952C73.3628 24.4575 72.9437 24.2781 72.9437 24.2781L71.2331 23.5778C70.737 23.3813 69.9245 22.9201 69.4711 22.6724C68.874 22.187 68.3573 21.6105 67.9401 20.9642C67.7896 20.516 67.7201 20.0446 67.7348 19.572C67.7176 19.3191 67.6351 19.0748 67.4954 18.8631C67.4954 18.8631 66.9137 17.8211 66.871 17.6845C66.7708 17.3719 66.7133 17.0472 66.6999 16.7193C66.7205 16.6022 66.7003 16.4816 66.6427 16.3775C66.5852 16.2734 66.4937 16.1921 66.3834 16.1471C66.142 15.9863 65.9209 15.797 65.7248 15.5834C65.642 15.3403 65.5903 15.0878 65.5709 14.8317C65.4266 14.9525 65.2973 15.0901 65.186 15.2417C65.1005 15.3869 65.186 15.9165 65.4426 15.9592C65.6992 16.0019 66.0157 16.2581 65.9472 16.2752C65.8788 16.2923 65.8104 16.651 65.8788 16.7876C66.0119 17.0839 66.0873 17.4028 66.1012 17.7272C66.0413 17.8553 65.6821 17.7272 65.6821 17.7272C65.478 17.6101 65.2632 17.5129 65.0406 17.4368C64.8866 17.4368 64.7412 17.898 64.6044 18.1115C64.5573 18.2302 64.5429 18.3592 64.5624 18.4853C64.5819 18.6114 64.6348 18.7301 64.7156 18.829C64.8059 18.9637 64.8832 19.1067 64.9465 19.256C64.9465 19.256 64.9465 19.9137 64.9978 20.2041C65.0491 20.4945 65.34 20.7251 65.4683 20.8361C65.5682 20.9128 65.6933 20.9494 65.8189 20.9386C65.8552 20.9502 65.8868 20.973 65.9093 21.0037C65.9317 21.0344 65.9438 21.0714 65.9438 21.1094C65.9438 21.1474 65.9317 21.1845 65.9093 21.2152C65.8868 21.2459 65.8552 21.2687 65.8189 21.2802C65.5709 21.3998 65.5623 21.7244 65.511 21.8781C65.4597 22.0319 65.34 22.3393 65.0834 22.365C64.8268 22.3906 64.7583 22.0746 64.5017 22.066C64.2451 22.0575 64.3734 22.3222 64.2109 22.4418C64.0484 22.5614 64.1254 22.8005 64.0997 23.1507C64.0741 23.5009 63.2444 23.7999 63.2444 24.0048C63.2711 24.086 63.2686 24.1739 63.2373 24.2534C63.2061 24.3329 63.1481 24.399 63.0734 24.4404C62.8206 24.5444 62.5952 24.7052 62.4148 24.9102C62.2218 25.1593 62.0953 25.4531 62.047 25.7643C62.047 25.7643 62.047 30.2227 62.047 30.5558C62.0547 30.7523 61.9942 30.9453 61.8759 31.1024C61.8138 31.2299 61.7844 31.3708 61.7904 31.5124C61.7904 31.7259 62.1496 31.5978 62.3378 31.3501C62.3915 31.2839 62.4691 31.2413 62.5539 31.2317C62.6388 31.2222 62.7239 31.2463 62.7911 31.2989C62.7911 31.2989 63.022 31.7089 63.1589 31.632C63.2957 31.5551 63.1589 31.1537 63.3128 31.1366C63.4668 31.1195 63.3642 31.3074 63.5438 31.4953C63.7234 31.6832 63.9287 31.4953 64.0313 31.3672C64.134 31.2391 64.0313 30.9145 64.0313 30.6241C64.0189 30.551 64.0327 30.4758 64.0702 30.4118C64.1078 30.3478 64.1667 30.299 64.2366 30.274C64.2366 30.274 64.63 30.274 65.0064 30.274C65.1547 30.2582 65.3045 30.2814 65.4411 30.3414C65.5776 30.4013 65.6961 30.4958 65.7847 30.6156C65.836 30.7864 66.1097 30.9487 66.3492 31.0512C66.5887 31.1537 66.7683 31.7003 66.8197 31.9053C66.8981 32.1559 66.9924 32.4012 67.1019 32.6398C67.3718 32.9393 67.6573 33.2244 67.9572 33.4939C68.1752 33.7311 68.3155 34.0291 68.3592 34.348C68.3592 34.5616 68.7441 34.9545 68.6842 35.1424C68.5899 35.7893 68.6044 36.4475 68.727 37.0897C68.8808 37.5545 68.9275 38.0479 68.8639 38.5332C68.7835 38.8629 68.766 39.2048 68.8125 39.541C68.8833 40.1396 68.8833 40.7445 68.8125 41.3432C68.756 41.5856 68.6511 41.8141 68.5041 42.0151C68.3572 42.2162 68.1712 42.3856 67.9572 42.5133C67.7223 42.5221 67.487 42.5049 67.2559 42.462C66.9651 42.4023 66.9822 42.9147 66.9822 42.9147C66.9822 42.9147 66.9822 43.282 66.9822 43.4443C66.9822 43.6065 66.8453 43.8628 66.7427 43.7774C66.64 43.692 66.7427 43.2137 66.7427 43.2137C66.5288 42.9318 66.7427 43.0001 66.5631 42.4962C66.3834 41.9923 65.7591 41.7617 65.7077 41.6421C65.6564 41.5225 65.9301 41.42 65.9472 41.2407C65.9643 41.0613 66.067 40.9844 66.4775 40.8051C66.5406 40.7868 66.5982 40.7534 66.6453 40.7078C66.6924 40.6622 66.7277 40.6057 66.7479 40.5434C66.7682 40.481 66.7728 40.4147 66.7615 40.3501C66.7501 40.2856 66.7231 40.2248 66.6828 40.173C66.6058 40.0705 66.7769 39.6179 66.5203 39.225C66.2952 38.7487 66.1534 38.2373 66.1012 37.7132C66.1012 37.7132 65.8703 37.0299 65.5623 37.1666C65.1667 37.5225 64.8717 37.9762 64.707 38.4819C64.6233 38.6484 64.491 38.7856 64.3277 38.8755C64.1643 38.9655 63.9775 39.0039 63.7918 38.9858C63.4839 38.926 63.1931 38.3453 62.9365 38.3025C62.6799 38.2598 62.7141 38.3965 62.5431 38.3965C62.372 38.3965 62.2009 38.2769 62.0555 38.2684C61.7877 38.2527 61.5224 38.328 61.3029 38.4819C61.2275 38.5381 61.136 38.5684 61.042 38.5684C60.948 38.5684 60.8565 38.5381 60.7811 38.4819C60.7811 38.4819 58.7797 36.7737 58.6086 36.6456C58.3456 36.4751 58.0568 36.3482 57.7533 36.2698C57.5993 36.2698 57.6763 36.3723 57.3427 36.4833C57.0625 36.5481 56.7734 36.5655 56.4874 36.5346L55.2472 37.5509C55.2472 37.5509 54.7084 38.0122 55.2472 38.089C55.7861 38.1659 55.692 38.5332 55.615 38.7723C55.517 39.0561 55.4594 39.3522 55.4439 39.652C55.4513 39.9625 55.5594 40.2622 55.7518 40.5061C55.7821 40.5233 55.8072 40.5481 55.8247 40.5781C55.8422 40.6081 55.8514 40.6422 55.8514 40.677C55.8514 40.7117 55.8422 40.7458 55.8247 40.7758C55.8072 40.8058 55.7821 40.8306 55.7518 40.8478C55.5893 40.9417 55.2387 41.514 55.0505 41.6165C54.7874 41.6888 54.5096 41.6888 54.2465 41.6165C54.151 41.593 54.0511 41.5949 53.9566 41.6219C53.8621 41.6488 53.7763 41.7 53.7076 41.7702C53.4938 41.941 53.2885 41.7702 53.0833 41.6421C52.878 41.514 52.6727 41.7361 52.6727 41.7361C52.3364 42.181 51.9646 42.5981 51.5608 42.983C50.87 43.4157 50.0752 43.6547 49.26 43.6749C48.8922 43.6749 48.6613 43.1966 48.5159 43.1282C48.3705 43.0599 48.1053 43.1282 47.9086 43.1282C47.7119 43.1282 47.2928 42.983 47.0533 42.9574C46.8128 42.9827 46.5859 43.0811 46.4032 43.2393C46.0984 43.4161 45.7377 43.471 45.3939 43.393C44.915 43.3161 44.7353 42.5987 44.6498 42.4535C44.5643 42.3083 44.6498 42.3083 43.9142 42.2571C43.4577 42.2108 43.0212 42.0459 42.6484 41.7788C42.6484 41.9667 42.4602 42.24 42.1694 42.5304C42.0847 42.602 42.0227 42.6966 41.9908 42.8027C41.9589 42.9088 41.9585 43.0219 41.9898 43.1282C42.1123 43.2771 42.2157 43.4406 42.2977 43.6151C42.3661 43.803 41.8871 44.0421 41.8871 44.0421C41.8871 44.0421 41.7332 44.0421 41.2114 44.0421C40.6897 44.0421 40.6555 43.9482 40.6555 43.9482C40.4679 43.9684 40.2786 43.9684 40.091 43.9482C39.8087 43.9482 39.7488 43.6322 39.6804 43.4955C39.6715 43.4598 39.6541 43.4268 39.6297 43.3992C39.6053 43.3716 39.5747 43.3502 39.5404 43.3368C39.5061 43.3235 39.469 43.3185 39.4324 43.3223C39.3957 43.3261 39.3605 43.3387 39.3297 43.3588C39.0868 43.4302 38.8254 43.4026 38.6027 43.282C38.4213 43.2286 38.2282 43.2286 38.0468 43.282C37.8515 43.4823 37.6366 43.6626 37.4053 43.8201C37.1922 43.9455 36.9511 44.016 36.7039 44.0251C36.5072 44.0251 36.3789 44.2984 36.1565 44.435C35.9341 44.5717 35.6006 44.3582 35.4979 44.435C35.3953 44.5119 34.9077 44.5973 34.8051 44.5034C34.7025 44.4094 34.7367 43.9055 34.5656 43.8628C34.3946 43.8201 34.2919 44.0934 34.0524 44.0251C33.8322 43.9444 33.6372 43.8071 33.4871 43.6272C33.3369 43.4472 33.2369 43.231 33.1971 43.0001C33.0774 42.3595 32.5984 42.3595 32.5984 42.3595C32.2888 42.3983 31.9756 42.3983 31.6661 42.3595C31.4352 42.2741 31.3924 42.0521 31.324 41.9154C31.2555 41.7788 31.1529 41.6763 30.8193 41.8642C30.4858 42.0521 30.3831 41.8642 30.3831 41.8642C30.3945 41.5976 30.3715 41.3306 30.3147 41.0699C30.1547 40.6922 30.0565 40.2914 30.0239 39.8826C30.0239 39.5922 29.6219 39.0285 29.5021 38.7296C29.4419 38.4928 29.4756 38.2419 29.5962 38.0292C29.3664 37.9574 29.1175 37.9788 28.9034 38.089C28.5431 38.241 28.1569 38.3221 27.7658 38.3282C27.6318 38.3319 27.5 38.293 27.3895 38.2171C27.2869 38.2171 27.5777 37.9011 27.5862 37.8584C27.5948 37.8157 27.5092 37.662 27.304 37.6193C27.0987 37.5766 27.1586 37.4057 26.9875 37.2093C26.8164 37.0129 26.6283 37.1153 26.423 37.0385C26.2177 36.9616 26.6112 36.2698 26.6026 36.0477C26.5941 35.8256 26.2519 35.8769 26.1493 35.8598C26.0467 35.8427 26.0381 35.8086 25.7986 35.5865C25.7673 35.5518 25.7291 35.524 25.6863 35.505C25.6436 35.4859 25.5974 35.4761 25.5506 35.4761C25.5038 35.4761 25.4575 35.4859 25.4148 35.505C25.3721 35.524 25.3338 35.5518 25.3025 35.5865C25.2272 35.6254 25.1436 35.6458 25.0588 35.6458C24.9739 35.6458 24.8903 35.6254 24.815 35.5865C24.6696 35.4925 24.2676 35.5865 24.1478 35.4755C23.885 35.4103 23.6145 35.3815 23.3438 35.3901C22.9622 35.3116 22.5896 35.1943 22.2319 35.0399C22.0096 34.8861 21.8813 34.9801 21.6418 34.9545C21.4023 34.9288 21.522 34.6641 21.1115 34.6043C20.7009 34.5445 20.8036 35.1424 20.8378 35.3388C20.872 35.5353 20.6239 35.484 20.3844 35.4584C20.145 35.4328 20.068 35.7744 19.9311 35.9025C19.8959 35.9375 19.8482 35.9571 19.7986 35.9571C19.7489 35.9571 19.7012 35.9375 19.666 35.9025C19.6459 35.8805 19.6215 35.8629 19.5943 35.8509C19.567 35.8388 19.5375 35.8326 19.5077 35.8326C19.478 35.8326 19.4485 35.8388 19.4212 35.8509C19.394 35.8629 19.3696 35.8805 19.3495 35.9025C19.187 36.0648 19.4693 36.415 19.6745 36.6798C19.7358 36.746 19.7699 36.8329 19.7699 36.9232C19.7699 37.0134 19.7358 37.1003 19.6745 37.1666C19.6745 37.1666 18.9561 37.3118 18.7508 37.0897C18.5455 36.8677 18.4087 36.9872 18.1777 36.936C17.9468 36.8847 17.9896 36.2869 17.981 36.1417C17.9725 35.9965 17.8955 35.8342 17.733 35.8256C17.5705 35.8171 17.2625 35.8256 17.2198 35.7061C17.2003 35.6286 17.1549 35.5602 17.0911 35.512C17.0274 35.4638 16.949 35.4389 16.8691 35.4413C16.6443 35.4661 16.417 35.4307 16.2105 35.3388C16.1079 35.2449 16.0138 34.9374 15.9453 34.9032C15.8769 34.869 15.6888 34.963 15.7657 34.758C15.805 34.6126 15.805 34.4593 15.7657 34.3139C15.7704 34.1412 15.7384 33.9694 15.6716 33.81C15.569 33.6306 15.321 33.6648 15.244 33.5708C15.167 33.4769 15.1927 33.3914 15.0644 33.1779C14.9361 32.9644 14.6795 33.0156 14.5597 32.8961C14.44 32.7765 14.44 32.6142 14.4656 32.6057C14.1123 32.6257 13.7578 32.594 13.4136 32.5117C13.2413 32.4556 13.0556 32.4556 12.8833 32.5117L12.4214 32.9986C12.3017 33.1181 12.105 32.9986 12.0793 32.785C12.0753 32.6058 12.1196 32.4288 12.2076 32.2726C12.2076 32.2726 11.7201 32.4007 11.6003 32.2726C11.5322 32.2115 11.4438 32.178 11.3523 32.1786C11.1664 32.4025 10.9437 32.5931 10.6937 32.7423C10.4905 32.8204 10.3024 32.9331 10.1377 33.0754C10.1377 33.1181 10.2575 33.2206 10.2489 33.3317C10.2404 33.4427 10.0693 33.5794 10.0094 33.7587C9.94957 33.9381 10.2062 34.0235 10.3516 34.1601C10.497 34.2968 10.4285 34.6214 10.4371 34.7751C10.4457 34.9288 10.172 35.2192 10.0608 35.2619C9.94957 35.3046 9.91536 35.4755 9.97523 35.6121C9.99565 35.6746 9.99207 35.7424 9.9652 35.8024C9.93833 35.8624 9.89008 35.9102 9.82983 35.9367C9.71864 35.9965 9.47059 35.8684 9.47059 35.8684H9.00017C8.82958 35.8303 8.67628 35.7373 8.56396 35.6036C8.44421 35.4413 8.2817 35.6548 8.05932 35.8C7.83694 35.9452 7.28953 35.9794 7.204 36.1075C7.11847 36.2356 7.26387 36.6798 7.204 36.8847C6.98023 37.1896 6.73132 37.4753 6.45987 37.7388C6.36067 37.9616 6.31386 38.2041 6.32302 38.4477C6.31654 38.6907 6.25822 38.9295 6.15196 39.1481C5.86293 39.1682 5.5727 39.1335 5.29664 39.0456C5.22822 39.0456 5.22822 38.7125 5.29664 38.5161C5.36507 38.3196 5.18545 38.0976 5.15979 38.0122C5.08628 37.7952 5.05719 37.5658 5.07426 37.3374C5.16356 37.062 5.187 36.7694 5.14268 36.4833C5.05715 36.2271 4.63805 36.0477 4.42422 35.8854C4.21039 35.7232 4.33013 35.0313 4.27026 34.8349C4.21039 34.6384 3.82549 34.3395 3.7143 34.1601C3.60311 33.9808 3.60311 33.4939 3.51758 33.306C3.43205 33.1181 3.01294 32.8192 3.01294 32.8192V31.2903C2.93885 31.0569 2.93885 30.8063 3.01294 30.5729C3.07911 30.3436 3.06091 30.0982 2.96162 29.8811C2.96162 29.8811 2.85899 29.6334 3.05571 29.6078C3.25243 29.5821 3.49192 30.2996 3.49192 30.2996C3.62024 30.1725 3.76736 30.0659 3.92813 29.9836C4.0992 29.9152 4.26171 30.1288 4.34724 30.2483C4.43277 30.3679 4.5183 30.2569 4.5183 30.2569C4.5183 30.2569 4.74068 29.659 4.92885 29.6761C5.23098 29.7852 5.5183 29.9316 5.78417 30.1117C5.88681 29.9409 5.51047 29.3259 5.51047 29.3259ZM25.1828 19.1962C25.1828 19.2816 25.1828 19.4439 25.4736 19.4439C25.7644 19.4439 25.8414 19.4439 25.9012 19.3927C25.9231 19.3478 25.9346 19.2987 25.9349 19.2488C25.9352 19.1989 25.9242 19.1496 25.9029 19.1045C25.8815 19.0594 25.8503 19.0197 25.8116 18.9883C25.7728 18.9568 25.7274 18.9345 25.6789 18.9229C25.6284 18.906 25.5749 18.8998 25.5219 18.9046C25.4688 18.9094 25.4174 18.9252 25.3708 18.9509C25.3241 18.9765 25.2834 19.0116 25.251 19.0539C25.2186 19.0961 25.1954 19.1446 25.1828 19.1962V19.1962ZM28.6981 20.8617C28.7495 20.9728 28.8692 20.9557 29.0061 20.8617C29.1429 20.7678 29.1258 20.614 29.0916 20.5286C29.0574 20.4432 28.9547 20.1955 28.7837 20.2297C28.6126 20.2639 28.6383 20.5713 28.6383 20.5713C28.64 20.671 28.6603 20.7695 28.6981 20.8617V20.8617ZM27.9968 19.2304C27.9968 19.2304 28.3817 19.8624 28.5527 19.7941C28.7238 19.7258 28.7409 19.1621 28.7238 18.9998C28.7202 18.7668 28.7989 18.54 28.9462 18.3592C29.1377 18.1208 29.3728 17.9208 29.639 17.7699C29.8785 17.6845 30.0153 17.6161 30.0324 17.5136C30.0495 17.4111 30.3061 17.5136 30.4173 17.4197C30.6921 17.2348 30.9777 17.0665 31.2726 16.9158C31.5812 16.8197 31.8954 16.7427 32.2135 16.6852L33.5991 16.5912C33.5991 16.5912 34.4031 16.3862 34.2748 16.0531C34.1465 15.72 34.0011 15.7798 33.7958 15.8054C33.5906 15.8311 33.5136 16.0019 33.1886 16.0019C32.8931 15.9817 32.6035 15.9094 32.3332 15.7883C32.1111 15.6986 31.8626 15.6986 31.6404 15.7883C31.4202 15.9585 31.1667 16.0807 30.8963 16.1471C30.6002 16.2386 30.3138 16.3588 30.041 16.5058C29.8605 16.6129 29.7034 16.7553 29.5791 16.9243C29.3824 17.1976 29.1771 17.1378 28.9462 17.1635C28.7152 17.1891 28.5271 17.488 28.5271 17.488C28.4854 17.5321 28.435 17.5671 28.379 17.5906C28.323 17.6141 28.2628 17.6257 28.2021 17.6247C27.954 17.6247 27.7573 18.1969 27.7658 18.3592C27.7744 18.5215 27.9198 18.3592 27.9198 18.3592C27.9198 18.3592 28.0395 18.1713 28.1422 18.2738C28.2448 18.3763 28.3646 18.4702 28.2363 18.6325C28.108 18.7948 27.9198 19.0083 27.9968 19.2219V19.2304ZM33.2826 11.1506C33.5392 11.0993 33.7787 11.031 33.7103 10.9285C33.5331 10.7842 33.3205 10.6899 33.0945 10.6552C32.9234 10.6552 32.8635 11.0054 32.8635 11.0054C32.8806 11.1506 33.0346 11.1847 33.2826 11.142V11.1506ZM34.8051 12.2694C34.9505 12.2694 34.9334 12.1584 34.9334 12.0132C34.9334 11.868 34.9334 11.8338 34.7196 11.8936C34.5057 11.9534 34.5485 12.2694 34.5485 12.2694C34.6338 12.2826 34.7209 12.2797 34.8051 12.2609V12.2694ZM35.1558 12.073C35.0959 12.1242 35.0703 12.2438 35.1558 12.2865C35.2413 12.3292 35.5749 12.2865 35.5492 12.073C35.5236 11.8595 35.2071 12.0132 35.1558 12.0645V12.073ZM39.9969 14.1912C39.9969 14.1912 40.2449 13.9264 40.3219 13.8324C40.4003 13.7263 40.453 13.6036 40.4759 13.4737C40.4759 13.32 40.3134 13.1321 40.1765 13.1065C40.0397 13.0808 39.8087 13.4225 39.6804 13.5506C39.5521 13.6787 39.6804 14.1485 39.6804 14.1485C39.697 14.174 39.7191 14.1955 39.7451 14.2115C39.771 14.2274 39.8002 14.2374 39.8305 14.2406C39.8608 14.2439 39.8915 14.2404 39.9203 14.2304C39.949 14.2203 39.9752 14.204 39.9969 14.1826V14.1912ZM39.9969 15.0453C40.0568 15.31 40.57 15.3528 40.741 15.3357C40.9121 15.3186 40.9121 15.088 40.9035 14.9086C40.895 14.7293 40.9548 14.6695 40.9548 14.5072C40.9573 14.4606 40.9444 14.4145 40.9181 14.376C40.8919 14.3374 40.8537 14.3085 40.8094 14.2937L40.1166 14.3535C39.8771 14.4389 39.9541 14.7634 40.0054 15.0282L39.9969 15.0453ZM51.5608 15.9933C51.5608 16.3948 51.6634 16.335 51.7233 16.3179C51.7832 16.3008 51.9286 16.0958 52.1167 15.9421C52.3049 15.7883 52.0312 15.5065 51.7917 15.5065C51.5522 15.5065 51.5608 15.7371 51.5608 15.7371C51.5563 15.8225 51.5563 15.908 51.5608 15.9933V15.9933ZM41.1345 16.241C41.1345 16.241 41.4509 15.9677 41.5963 15.8738C41.7417 15.7798 41.7332 15.8738 41.9641 15.7883C42.1951 15.7029 42.0582 15.3955 42.0582 15.3955L41.7588 15.088C41.6659 14.9895 41.5475 14.9185 41.4167 14.883C41.22 14.8318 41.0917 15.0282 41.143 15.3271C41.1834 15.4828 41.1619 15.6481 41.0831 15.7883C41.0669 15.9434 41.0936 16.1 41.1601 16.241H41.1345ZM49.9271 14.5328H49.5764C49.5764 14.5328 49.3455 14.4559 49.431 14.7805C49.4507 14.8989 49.4952 15.0118 49.5615 15.1119C49.6278 15.2119 49.7145 15.2969 49.8159 15.3613C49.9784 15.4552 50.0212 15.5919 50.1837 15.5834C50.3462 15.5748 50.5087 15.3613 50.6285 15.1478C50.7101 15.0129 50.8249 14.9012 50.9621 14.8232C50.9621 14.8232 51.2529 14.5755 51.0647 14.5243C50.9642 14.4946 50.8611 14.4746 50.7568 14.4645C50.7568 14.4645 51.193 14.3107 51.1331 14.1826C51.0733 14.0545 51.0904 13.8581 50.8338 13.8154C50.5772 13.7727 50.5686 13.952 50.3976 13.9862C50.2265 14.0204 50.0811 13.9093 50.0212 14.046C49.9613 14.1826 50.2008 14.473 49.9528 14.5499L49.9271 14.5328ZM52.1595 13.6787C52.4589 13.5848 52.3049 13.32 52.1595 13.1919C52.0141 13.0638 51.7575 13.3029 51.7575 13.3029L51.2529 13.6787C51.5566 13.775 51.8832 13.7721 52.1852 13.6702L52.1595 13.6787ZM58.754 7.00815C58.8139 7.32417 59.0961 7.44374 59.2244 7.30709C59.3527 7.17043 59.2244 6.65797 59.2244 6.57256C59.2244 6.48715 59.156 6.23092 58.9678 6.22238C58.7797 6.21383 58.754 6.48715 58.754 6.48715C58.7207 6.65751 58.7295 6.83341 58.7797 6.99961L58.754 7.00815ZM68.3165 16.4887C68.2309 16.5656 68.3165 16.9158 68.3165 16.9158C68.3354 17.0665 68.3849 17.2118 68.4619 17.3428C68.556 17.4368 68.6671 17.3428 68.6671 17.2574C68.6926 17.1392 68.6926 17.0169 68.6671 16.8987C68.6671 16.762 68.5046 16.3521 68.3421 16.4802L68.3165 16.4887ZM72.7385 17.2232C72.6957 17.1549 72.5161 17.1378 72.3878 17.1635C72.2595 17.1891 72.1739 17.4624 72.1739 17.4624C72.5503 17.5393 72.7983 17.2745 72.7641 17.2147L72.7385 17.2232ZM73.0806 16.9756C73.303 17.0183 73.397 16.7279 73.397 16.7279H73.1319C72.9437 16.7279 72.9437 16.8645 72.9437 16.8645C72.9437 16.8645 72.8753 16.9158 73.1062 16.967L73.0806 16.9756ZM73.799 25.3031C73.799 25.1493 73.6365 24.7821 73.4911 24.8162C73.3457 24.8504 73.4313 25.2006 73.4911 25.4312C73.5327 25.5701 73.6128 25.6945 73.7221 25.7899C73.8504 25.7899 73.799 25.4568 73.799 25.3031ZM74.3379 26.5586C74.4149 26.5586 74.3379 26.3792 74.3379 26.3195C74.3239 26.2889 74.3007 26.2635 74.2716 26.2467C74.2425 26.2298 74.2089 26.2224 74.1754 26.2255C74.107 26.2255 74.1754 26.4134 74.1754 26.4134C74.1754 26.4134 74.2182 26.5501 74.2951 26.5586H74.3379ZM74.5004 27.4127C74.5603 27.4127 74.7998 27.4127 74.6458 27.2248C74.4919 27.0369 74.355 27.1052 74.355 27.1052C74.355 27.1052 74.3978 27.4213 74.4576 27.4469L74.5004 27.4127ZM74.9708 29.1209C74.911 29.2063 74.9708 29.3686 74.9708 29.3686C74.9708 29.3686 75.0478 29.6505 75.1676 29.6761C75.2873 29.7017 75.3472 29.4967 75.3472 29.4967C75.3472 29.4967 75.4156 29.2405 75.3472 29.138C75.3201 29.1053 75.2851 29.08 75.2455 29.0647C75.2058 29.0494 75.1629 29.0445 75.1208 29.0505C75.0788 29.0565 75.0389 29.0732 75.0052 29.099C74.9714 29.1248 74.9449 29.1588 74.9281 29.1978L74.9708 29.1209ZM75.1077 30.8291V31.4099C75.1077 31.4099 75.1077 31.632 75.3044 31.316C75.5011 31 75.407 30.8889 75.3044 30.8291C75.2018 30.7693 75.1077 30.8291 75.0649 30.9145L75.1077 30.8291ZM74.6544 32.8192C74.6367 33.135 74.6367 33.4515 74.6544 33.7673C74.6544 34.0064 74.8511 34.0235 74.9452 33.8954C75.0393 33.7673 74.8853 32.9473 74.9452 32.8277C75.005 32.7082 75.0991 32.6569 75.1077 32.5117C75.1162 32.3665 74.8682 32.1018 74.8682 32.1018C74.6544 32.2042 74.6544 32.8192 74.6544 32.8192ZM74.5859 35.1509C74.7827 35.3388 74.7827 35.1509 74.757 34.7239C74.7658 34.6113 74.7358 34.4992 74.672 34.406C74.6082 34.3128 74.5145 34.2441 74.4063 34.2114C74.3594 34.3766 74.3513 34.5503 74.3824 34.7191C74.4136 34.888 74.4832 35.0474 74.5859 35.1851V35.1509ZM65.9472 29.6932C65.9472 29.77 65.8959 29.9238 65.8018 29.9494C65.7077 29.975 65.6479 30.0946 65.7077 30.1629L66.144 30.5217C66.2979 30.6498 66.64 31.1537 66.7854 31.2562C66.9308 31.3587 67.0762 31.2135 67.2815 31.3331C67.6229 31.5901 67.913 31.9088 68.1368 32.2726C68.3423 32.5841 68.5835 32.8708 68.8553 33.1267C68.9152 33.1865 69.1376 33.5366 69.3257 33.6135C69.8038 33.9912 70.2294 34.4307 70.5916 34.9203C70.7276 35.1192 70.9218 35.2713 71.1476 35.3559C71.1476 35.3559 71.2245 35.2449 71.0791 35.074C70.9337 34.9032 70.9081 34.6214 71.0791 34.553C71.303 34.5181 71.531 34.5181 71.7548 34.553V34.5274C71.6779 34.237 71.1048 34.2968 70.8995 34.2712C70.6662 34.2328 70.4508 34.1223 70.2837 33.9552C70.0922 33.7496 69.9204 33.5265 69.7705 33.289C69.6368 33.0674 69.5523 32.8199 69.5225 32.563C69.5225 32.3238 69.6508 32.2982 69.933 32.2299C70.2153 32.1615 70.1639 32.0847 70.1041 31.9736C70.0442 31.8626 69.6679 31.837 69.4626 31.8028C68.921 31.5724 68.405 31.2861 67.923 30.9487C67.6408 30.7437 66.6742 29.8213 66.6742 29.8213C66.3689 29.5427 66.0332 29.2992 65.6735 29.0953C65.4169 29.0184 65.3229 29.2063 65.4084 29.2234C65.5924 29.3276 65.767 29.4476 65.9301 29.5821C65.9301 29.5821 65.9558 29.6505 65.9472 29.7273V29.6932ZM75.9288 14.5755C75.9686 14.5638 76.0032 14.5387 76.0266 14.5045C76.05 14.4702 76.0607 14.4289 76.0571 14.3876C76.0547 14.3477 76.0414 14.3091 76.0189 14.276C75.9963 14.2429 75.9651 14.2166 75.9288 14.1997C75.8889 14.2556 75.8626 14.3199 75.8518 14.3876C75.8488 14.4686 75.8763 14.5479 75.9288 14.6097V14.5755ZM78.298 10.8687C78.1013 10.92 77.8789 11.142 77.9816 11.2274C78.0842 11.3128 78.4947 10.8516 78.298 10.9029V10.8687ZM47.9171 38.8406C47.7611 39.3603 47.5489 39.8615 47.2842 40.3353C47.1069 40.6713 46.8885 40.984 46.6342 41.2663C46.4888 41.4371 45.7788 41.8215 45.7788 41.8983C45.7788 41.9752 45.9499 42.0521 46.292 41.9752C46.5803 41.8974 46.8411 41.7406 47.0447 41.5225C47.1388 41.42 47.1217 41.1211 47.1559 41.0101C47.1901 40.899 47.327 40.9247 47.327 40.9247C47.7641 40.5134 48.1362 40.0382 48.4303 39.5154C48.4303 39.4043 48.379 39.2933 48.3876 39.1823C48.4146 39.0532 48.4734 38.9328 48.5586 38.8321C48.5848 38.4197 48.5848 38.006 48.5586 37.5936C48.5586 37.2862 48.4645 37.1751 48.3106 37.1581C48.1566 37.141 48.0882 37.5424 48.0625 37.8157C48.0376 38.1603 47.989 38.5027 47.9171 38.8406Z" fill="#201D1D"/>
<path d="M2.7724 53.6821H4.72966C5.64905 53.6821 6.3141 53.8195 6.72483 54.0944C7.13555 54.3693 7.34092 54.8037 7.34092 55.3976C7.34092 55.8084 7.2256 56.148 6.99496 56.4166C6.76748 56.682 6.43416 56.8541 5.995 56.9331V56.9805C7.04709 57.1606 7.57313 57.7135 7.57313 58.6392C7.57313 59.2585 7.36303 59.7418 6.94283 60.0894C6.52579 60.4369 5.94129 60.6107 5.18935 60.6107H2.7724V53.6821ZM3.57805 56.6488H4.905C5.4737 56.6488 5.88284 56.5603 6.13244 56.3834C6.38203 56.2033 6.50683 55.9016 6.50683 55.4782C6.50683 55.0896 6.36782 54.81 6.08979 54.6394C5.81176 54.4656 5.36944 54.3787 4.76283 54.3787H3.57805V56.6488ZM3.57805 57.3312V59.9235H5.02348C5.5827 59.9235 6.0029 59.8161 6.28409 59.6013C6.56844 59.3833 6.71061 59.0436 6.71061 58.5823C6.71061 58.1527 6.56528 57.8367 6.27461 57.6345C5.98711 57.4323 5.54795 57.3312 4.95713 57.3312H3.57805Z" fill="black"/>
<path d="M14.5397 60.6107H12.6535V55.2128H10.7436V60.6107H8.86218V53.6821H14.5397V60.6107ZM15.279 55.2413H17.2315L18.1414 58.3217C18.1856 58.4828 18.2156 58.6771 18.2314 58.9046H18.2693C18.2946 58.6866 18.3325 58.4955 18.3831 58.3312L19.3167 55.2413H21.2076L19.0845 60.9519C18.8128 61.6786 18.4779 62.192 18.0798 62.4921C17.6849 62.7923 17.1683 62.9423 16.5301 62.9423C16.2836 62.9423 16.0309 62.9155 15.7718 62.8618V61.4069C15.9393 61.4448 16.1304 61.4637 16.3453 61.4637C16.5095 61.4637 16.6533 61.4321 16.7765 61.3689C16.8997 61.3058 17.0072 61.2157 17.0988 61.0988C17.1904 60.9851 17.2883 60.7971 17.3926 60.5349L15.279 55.2413ZM26.8329 56.6203H25.0653V60.6107H23.2123V56.6203H21.4446V55.2413H26.8329V56.6203ZM30.2072 60.7055C29.3131 60.7055 28.618 60.4685 28.122 59.9946C27.6291 59.5175 27.3827 58.8398 27.3827 57.9615C27.3827 57.0548 27.6117 56.3597 28.0699 55.8763C28.528 55.3897 29.182 55.1465 30.0319 55.1465C30.8407 55.1465 31.4647 55.3582 31.9038 55.7815C32.3461 56.2017 32.5673 56.8083 32.5673 57.6013V58.4259H29.2546C29.2673 58.7261 29.3763 58.9615 29.5816 59.1321C29.7902 59.3027 30.0729 59.388 30.4299 59.388C30.7554 59.388 31.0539 59.358 31.3256 59.2979C31.6005 59.2348 31.8975 59.1289 32.2166 58.9804V60.3121C31.9259 60.4606 31.6258 60.5633 31.3162 60.6202C31.0065 60.677 30.6369 60.7055 30.2072 60.7055ZM30.0982 56.4071C29.8802 56.4071 29.697 56.4766 29.5485 56.6156C29.4031 56.7515 29.3178 56.9663 29.2926 57.2601H30.8849C30.8786 57.0011 30.8043 56.7941 30.6622 56.6393C30.5232 56.4845 30.3352 56.4071 30.0982 56.4071ZM42.0787 60.6107H33.6146V55.2413H35.4676V59.2316H36.9557V55.2413H38.7613V59.2316H40.2257V55.2413H42.0787V60.6107ZM45.9506 60.7055C45.0565 60.7055 44.3614 60.4685 43.8654 59.9946C43.3725 59.5175 43.1261 58.8398 43.1261 57.9615C43.1261 57.0548 43.3551 56.3597 43.8132 55.8763C44.2714 55.3897 44.9254 55.1465 45.7752 55.1465C46.5841 55.1465 47.208 55.3582 47.6472 55.7815C48.0895 56.2017 48.3107 56.8083 48.3107 57.6013V58.4259H44.998C45.0107 58.7261 45.1197 58.9615 45.325 59.1321C45.5335 59.3027 45.8163 59.388 46.1733 59.388C46.4988 59.388 46.7973 59.358 47.069 59.2979C47.3439 59.2348 47.6409 59.1289 47.96 58.9804V60.3121C47.6693 60.4606 47.3692 60.5633 47.0595 60.6202C46.7499 60.677 46.3803 60.7055 45.9506 60.7055ZM45.8416 56.4071C45.6236 56.4071 45.4403 56.4766 45.2919 56.6156C45.1465 56.7515 45.0612 56.9663 45.0359 57.2601H46.6283C46.622 57.0011 46.5477 56.7941 46.4055 56.6393C46.2665 56.4845 46.0785 56.4071 45.8416 56.4071ZM51.8034 60.7055C50.9251 60.7055 50.2585 60.4685 49.8035 59.9946C49.3517 59.5207 49.1258 58.8398 49.1258 57.952C49.1258 57.0611 49.3707 56.3707 49.8604 55.881C50.3501 55.3913 51.0467 55.1465 51.9503 55.1465C52.5727 55.1465 53.1588 55.2823 53.7085 55.554L53.1635 56.9236C52.9392 56.8257 52.7323 56.7483 52.5427 56.6914C52.3532 56.6314 52.1557 56.6014 51.9503 56.6014C51.6502 56.6014 51.418 56.7183 51.2537 56.9521C51.0894 57.1859 51.0072 57.516 51.0072 57.9426C51.0072 58.8019 51.3248 59.2316 51.9598 59.2316C52.5032 59.2316 53.0245 59.0736 53.5237 58.7577V60.2316C53.0466 60.5475 52.4732 60.7055 51.8034 60.7055ZM59.5708 56.6203H57.8032V60.6107H55.9502V56.6203H54.1825V55.2413H59.5708V56.6203ZM65.708 56.6298C65.708 56.9426 65.6164 57.2017 65.4331 57.407C65.2499 57.6124 64.9987 57.7419 64.6796 57.7956V57.8336C65.0651 57.8778 65.3605 58.0105 65.5658 58.2316C65.7712 58.4496 65.8739 58.7308 65.8739 59.0752C65.8739 60.0989 65.0398 60.6107 63.3716 60.6107H60.4476V55.2413H63.3811C64.1615 55.2413 64.7444 55.355 65.1298 55.5825C65.5153 55.81 65.708 56.1591 65.708 56.6298ZM63.9925 58.8951C63.9925 58.7277 63.9356 58.6076 63.8218 58.5349C63.7081 58.4623 63.5438 58.4259 63.329 58.4259H62.3006V59.3975H63.31C63.765 59.3975 63.9925 59.23 63.9925 58.8951ZM63.8645 56.8763C63.8645 56.5951 63.6939 56.4545 63.3527 56.4545H62.3006V57.2601H63.2816C63.4775 57.2601 63.6228 57.2238 63.7176 57.1511C63.8155 57.0785 63.8645 56.9868 63.8645 56.8763ZM68.5989 55.2413V56.5919C68.5989 56.6677 68.5973 56.7499 68.5941 56.8383C68.5941 56.9268 68.5736 57.4892 68.5325 58.5255L70.6794 55.2413H72.7267V60.6107H71.0774V59.1558C71.0774 58.6471 71.0996 58.0452 71.1438 57.3502L69.0064 60.6107H66.9497V55.2413H68.5989ZM76.6033 60.7055C75.7092 60.7055 75.0141 60.4685 74.5181 59.9946C74.0252 59.5175 73.7788 58.8398 73.7788 57.9615C73.7788 57.0548 74.0078 56.3597 74.4659 55.8763C74.924 55.3897 75.578 55.1465 76.4279 55.1465C77.2367 55.1465 77.8607 55.3582 78.2999 55.7815C78.7422 56.2017 78.9634 56.8083 78.9634 57.6013V58.4259H75.6507C75.6633 58.7261 75.7723 58.9615 75.9777 59.1321C76.1862 59.3027 76.469 59.388 76.826 59.388C77.1514 59.388 77.45 59.358 77.7217 59.2979C77.9966 59.2348 78.2936 59.1289 78.6127 58.9804V60.3121C78.322 60.4606 78.0218 60.5633 77.7122 60.6202C77.4026 60.677 77.033 60.7055 76.6033 60.7055ZM76.4943 56.4071C76.2763 56.4071 76.093 56.4766 75.9445 56.6156C75.7992 56.7515 75.7139 56.9663 75.6886 57.2601H77.281C77.2746 57.0011 77.2004 56.7941 77.0582 56.6393C76.9192 56.4845 76.7312 56.4071 76.4943 56.4071Z" fill="#008DD5"/>
</svg>
