<svg width="17" height="17" viewBox="0 0 17 17" fill="none" xmlns="http://www.w3.org/2000/svg">
<path d="M15.6884 6.83984H11.4384C11.3653 6.83984 11.3056 6.89961 11.3056 6.97266V7.76953C11.3056 7.84258 11.3653 7.90234 11.4384 7.90234H15.6884C15.7614 7.90234 15.8212 7.84258 15.8212 7.76953V6.97266C15.8212 6.89961 15.7614 6.83984 15.6884 6.83984ZM13.4638 9.09766H11.4384C11.3653 9.09766 11.3056 9.15742 11.3056 9.23047V10.0273C11.3056 10.1004 11.3653 10.1602 11.4384 10.1602H13.4638C13.5368 10.1602 13.5966 10.1004 13.5966 10.0273V9.23047C13.5966 9.15742 13.5368 9.09766 13.4638 9.09766ZM7.92383 5.354H7.20498C7.10205 5.354 7.01904 5.43701 7.01904 5.53994V9.65713C7.01904 9.7169 7.04727 9.77168 7.09541 9.80654L9.56738 11.6095C9.65039 11.6692 9.7666 11.6526 9.82637 11.5696L10.253 10.9869V10.9853C10.3128 10.9022 10.2945 10.786 10.2115 10.7263L8.10811 9.20557V5.53994C8.10977 5.43701 8.0251 5.354 7.92383 5.354Z" fill="#F0F2F5"/>
<path d="M13.3609 11.1878H12.4014C12.3084 11.1878 12.2204 11.2359 12.1706 11.3156C11.9598 11.6493 11.7141 11.9581 11.4318 12.2403C10.9454 12.7267 10.3793 13.1086 9.75011 13.3742C9.09767 13.6498 8.40538 13.7892 7.69151 13.7892C6.97599 13.7892 6.2837 13.6498 5.63292 13.3742C5.00372 13.1086 4.43761 12.7267 3.95118 12.2403C3.46476 11.7539 3.08292 11.1878 2.8173 10.5586C2.54171 9.9078 2.40226 9.21552 2.40226 8.49999C2.40226 7.78447 2.54171 7.09384 2.8173 6.4414C3.08292 5.81221 3.46476 5.24609 3.95118 4.75967C4.43761 4.27325 5.00372 3.89141 5.63292 3.62579C6.2837 3.3502 6.97765 3.21075 7.69151 3.21075C8.40704 3.21075 9.09933 3.3502 9.75011 3.62579C10.3793 3.89141 10.9454 4.27325 11.4318 4.75967C11.7141 5.0419 11.9598 5.35068 12.1706 5.68437C12.2204 5.76406 12.3084 5.81221 12.4014 5.81221H13.3609C13.4755 5.81221 13.5485 5.69268 13.4971 5.59141C12.4147 3.43819 10.2199 2.03868 7.76954 2.01046C4.18194 1.96563 1.20196 4.90244 1.19532 8.48671C1.18868 12.0776 4.09894 14.9912 7.68986 14.9912C10.1718 14.9912 12.403 13.5867 13.4971 11.4086C13.5485 11.3073 13.4738 11.1878 13.3609 11.1878Z" fill="#F0F2F5"/>
</svg>
